<?xml version="1.0" standalone="no"?>
<!DOCTYPE svg PUBLIC "-//W3C//DTD SVG 20010904//EN"
 "http://www.w3.org/TR/2001/REC-SVG-20010904/DTD/svg10.dtd">
<svg version="1.0" xmlns="http://www.w3.org/2000/svg"
 width="394.000000pt" height="400.000000pt" viewBox="0 0 394.000000 400.000000"
 preserveAspectRatio="xMidYMid meet">

<g transform="translate(0.000000,400.000000) scale(0.100000,-0.100000)"
fill="#EA2410" stroke="none">
<path d="M1825 3944 c-16 -2 -66 -9 -110 -15 -365 -49 -764 -245 -1059 -520
-44 -41 -76 -67 -72 -59 4 8 -13 -7 -37 -35 -25 -27 -43 -53 -41 -57 3 -4 -7
-15 -21 -24 -38 -25 -180 -242 -241 -369 -92 -189 -152 -405 -183 -650 -9 -66
-7 -325 2 -420 15 -155 78 -395 133 -505 19 -38 34 -73 34 -76 0 -16 86 -173
144 -263 293 -453 733 -757 1256 -866 171 -36 449 -45 625 -21 225 32 411 90
615 191 125 63 304 180 384 252 73 64 200 206 260 289 28 39 73 102 101 139
27 38 49 78 50 89 1 28 67 186 75 181 4 -2 12 8 19 23 11 25 10 26 -4 8 -20
-26 -19 -22 9 60 60 172 86 316 92 504 2 85 2 151 0 145 -3 -5 -10 -66 -15
-135 -18 -219 -56 -385 -126 -558 -45 -110 -166 -316 -241 -410 -88 -111 -286
-298 -379 -360 -44 -29 -67 -43 -51 -30 128 101 178 144 226 194 51 54 50 53
-26 -15 -102 -91 -182 -151 -257 -193 -32 -18 -81 -48 -109 -67 -52 -34 -133
-73 -178 -85 -14 -4 7 9 45 28 86 42 82 47 -6 7 -88 -39 -275 -99 -385 -122
-119 -25 -312 -40 -394 -31 -54 7 -34 9 120 14 102 4 201 11 220 17 19 5 78
21 130 35 194 51 484 170 478 197 -2 6 3 14 11 17 9 3 11 0 6 -8 -6 -9 -3 -9
14 -1 11 7 20 17 18 23 -1 6 4 13 12 16 9 3 11 0 6 -8 -6 -9 -4 -11 6 -5 39
23 70 48 65 53 -7 7 13 32 26 32 6 0 4 -8 -3 -17 -13 -16 -12 -17 4 -4 9 8 15
16 12 19 -7 7 15 32 27 32 6 0 4 -8 -3 -18 -13 -15 -12 -16 4 -3 9 8 15 16 12
19 -3 3 7 19 22 36 27 29 26 28 -12 -4 -108 -91 -401 -255 -500 -279 -22 -5
-58 -16 -80 -24 -131 -48 -421 -93 -543 -84 -353 27 -484 60 -767 198 -147 71
-320 202 -481 363 -159 160 -258 308 -350 524 -98 228 -139 439 -137 702 1
205 22 344 79 522 77 241 231 507 372 645 23 22 42 46 42 51 0 21 169 167 275
238 250 166 554 275 820 291 50 3 102 12 117 19 17 9 49 12 90 9 50 -3 55 -2
23 4 l-40 8 48 2 c28 0 46 -3 42 -8 -3 -6 9 -12 27 -15 140 -21 201 -28 225
-23 36 8 136 -20 162 -45 12 -10 21 -15 21 -11 0 4 4 3 8 -2 9 -13 167 -75
207 -82 42 -7 184 -84 279 -151 44 -31 134 -109 201 -172 66 -63 107 -99 90
-80 l-30 35 32 -29 c18 -16 30 -33 27 -37 -2 -5 16 -35 42 -69 52 -66 72 -82
29 -22 l-26 37 30 -35 c17 -19 30 -41 28 -50 -1 -8 4 -14 10 -13 17 4 66 -75
59 -94 -7 -16 17 -68 36 -79 7 -5 5 4 -4 19 -10 14 -18 32 -18 39 1 15 50 -76
55 -101 2 -9 14 -38 28 -66 14 -27 41 -101 62 -164 20 -63 40 -122 45 -131 14
-26 41 -196 49 -310 l8 -105 1 85 c2 105 -19 248 -57 396 -33 124 -99 300
-133 354 -12 19 -30 51 -39 71 -25 54 -99 163 -172 254 -88 110 -212 226 -348
327 -131 99 -227 153 -375 213 -116 48 -114 68 2 24 97 -37 286 -133 359 -182
76 -51 197 -151 255 -212 25 -26 58 -53 73 -61 15 -8 26 -18 23 -23 -3 -4 9
-20 26 -36 84 -80 180 -221 264 -387 25 -50 51 -97 58 -103 6 -7 27 -59 45
-116 18 -57 41 -126 52 -154 16 -42 18 -44 13 -15 -7 44 -40 152 -58 193 -7
18 -24 61 -36 97 -24 72 -111 240 -175 340 -133 207 -349 418 -568 554 -176
109 -317 177 -449 216 -186 55 -302 72 -528 75 -113 2 -218 1 -235 -1z m360
-64 c119 -12 306 -47 315 -59 3 -4 19 -13 35 -20 22 -8 23 -10 5 -6 -359 80
-570 92 -842 49 -89 -13 -174 -41 -163 -52 3 -3 -40 -20 -95 -38 -213 -70
-436 -200 -645 -375 -60 -51 -96 -78 -80 -60 52 57 207 186 285 237 41 27 127
75 190 106 117 58 136 82 23 28 -35 -16 -63 -27 -63 -24 0 12 212 104 315 137
242 77 464 101 720 77z m-228 -36 c-3 -3 -12 -4 -19 -1 -8 3 -5 6 6 6 11 1 17
-2 13 -5z m91 -1 c-10 -2 -28 -2 -40 0 -13 2 -5 4 17 4 22 1 32 -1 23 -4z
m-181 -9 c-3 -3 -12 -4 -19 -1 -8 3 -5 6 6 6 11 1 17 -2 13 -5z m-167 -14 c-8
-5 -26 -10 -40 -10 -20 0 -22 2 -10 10 8 5 26 10 40 10 20 0 22 -2 10 -10z
m53 3 c-7 -2 -19 -2 -25 0 -7 3 -2 5 12 5 14 0 19 -2 13 -5z m-130 -20 c-7 -2
-19 -2 -25 0 -7 3 -2 5 12 5 14 0 19 -2 13 -5z m-46 -9 c-3 -3 -12 -4 -19 -1
-8 3 -5 6 6 6 11 1 17 -2 13 -5z m730 -10 c-3 -3 -12 -4 -19 -1 -8 3 -5 6 6 6
11 1 17 -2 13 -5z m210 -20 c-3 -3 -12 -4 -19 -1 -8 3 -5 6 6 6 11 1 17 -2 13
-5z m138 -75 c5 -5 -5 -4 -23 2 -17 6 -32 13 -32 16 0 7 43 -8 55 -18z m379
-168 c-2 -3 -12 3 -22 13 -16 17 -16 18 5 5 12 -7 20 -15 17 -18z m272 -233
l29 -33 -32 29 c-31 28 -38 36 -30 36 2 0 16 -15 33 -32z m-2696 -91 c0 -2
-10 -12 -22 -23 l-23 -19 19 23 c18 21 26 27 26 19z m2821 -54 c13 -16 12 -17
-3 -4 -17 13 -22 21 -14 21 2 0 10 -8 17 -17z m-2907 -60 c-49 -70 -74 -101
-59 -73 15 27 96 140 101 140 3 0 -16 -30 -42 -67z m2496 -2583 c-14 -11 -29
-20 -35 -20 -5 0 1 9 15 20 14 11 30 20 35 20 6 0 -1 -9 -15 -20z m-140 -85
c-14 -8 -29 -14 -35 -14 -5 0 1 6 15 14 14 8 30 14 35 14 6 0 -1 -6 -15 -14z
m-210 -165 c-8 -5 -19 -10 -25 -10 -5 0 -3 5 5 10 8 5 20 10 25 10 6 0 3 -5
-5 -10z m-95 -35 c-16 -8 -37 -14 -45 -14 -8 0 1 7 20 14 46 18 64 17 25 0z
m-105 -31 c-25 -8 -63 -17 -85 -19 -25 -3 -14 2 30 14 82 22 120 25 55 5z
m-137 -31 c-7 -2 -21 -2 -30 0 -10 3 -4 5 12 5 17 0 24 -2 18 -5z"/>
<path d="M1440 3783 c-8 -3 -39 -14 -67 -25 -29 -11 -53 -23 -53 -27 0 -9 102
26 135 46 20 13 12 16 -15 6z"/>
<path d="M1887 3295 c-13 -68 -26 -598 -27 -1074 l0 -454 -79 6 c-117 8 -123
14 -173 173 -23 73 -45 131 -48 129 -3 -2 -3 -34 1 -72 5 -37 8 -98 8 -135 1
-58 -2 -69 -21 -82 -33 -23 -56 -19 -72 12 -18 36 -33 210 -41 472 -10 340
-35 671 -55 724 -19 51 -23 -151 -12 -663 7 -299 10 -546 8 -548 -2 -2 -33 -9
-70 -15 -50 -8 -69 -8 -80 1 -21 17 -33 78 -66 343 -60 476 -163 1037 -196
1067 -19 17 24 -383 86 -794 29 -195 112 -708 115 -712 1 -2 40 3 87 9 103 14
127 4 151 -64 13 -37 16 -39 16 -16 2 70 40 98 106 80 65 -18 77 -56 184 -603
61 -309 85 -399 110 -407 11 -4 12 8 7 64 -17 170 -81 573 -122 767 -14 66
-24 133 -22 150 l3 32 68 3 c91 4 101 -5 93 -78 -17 -156 -19 -245 -4 -258 12
-10 18 -10 27 1 16 20 31 109 31 186 0 80 15 138 38 149 23 12 182 35 207 31
16 -3 21 -15 26 -54 17 -129 78 -146 79 -22 0 27 7 45 25 62 22 23 31 25 125
25 56 0 111 -5 122 -11 19 -10 20 -17 14 -78 -8 -77 -2 -101 25 -101 24 0 35
23 44 90 14 110 49 132 220 138 143 5 160 -3 174 -81 17 -91 58 -89 76 4 8 43
15 56 36 66 14 7 97 17 185 22 168 10 269 33 269 61 0 43 -120 51 -330 21 -71
-11 -131 -18 -132 -17 -1 0 16 174 37 386 50 491 56 576 40 615 l-12 30 -19
-55 c-36 -102 -91 -493 -104 -730 -10 -201 -12 -210 -51 -226 -24 -10 -79 -14
-199 -14 l-166 0 5 33 c10 55 55 544 66 702 11 167 12 387 1 424 -23 84 -106
-539 -131 -979 -8 -141 -13 -188 -25 -199 -12 -12 -47 -16 -155 -19 l-140 -4
0 458 c-1 435 -10 737 -26 814 -18 84 -23 -33 -23 -540 -2 -652 -9 -728 -77
-756 -18 -8 -66 -14 -107 -14 l-74 0 -6 272 c-4 149 -7 373 -7 497 0 246 -16
666 -28 746 l-8 50 -7 -40z"/>
<path d="M3882 2410 c0 -14 2 -19 5 -12 2 6 2 18 0 25 -3 6 -5 1 -5 -13z"/>
</g>
</svg>
